<?xml version="1.0" encoding="utf-8"?>
<!-- Generator: Adobe Illustrator 17.0.0, SVG Export Plug-In . SVG Version: 6.00 Build 0)  -->
<!DOCTYPE svg PUBLIC "-//W3C//DTD SVG 1.1//EN" "http://www.w3.org/Graphics/SVG/1.1/DTD/svg11.dtd">
<svg version="1.1" id="Layer_1" xmlns="http://www.w3.org/2000/svg" xmlns:xlink="http://www.w3.org/1999/xlink" x="0px" y="0px"
	 width="384px" height="841.89px" viewBox="0 0 384 841.89" enable-background="new 0 0 384 841.89" xml:space="preserve">
<radialGradient id="SVGID_1_" cx="145.3333" cy="378.6667" r="91.3443" fx="152.3492" fy="409.0705" gradientTransform="matrix(-0.012 -0.9999 0.257 -0.0031 49.7715 525.1573)" gradientUnits="userSpaceOnUse">
	<stop  offset="0" style="stop-color:#27AAE1"/>
	<stop  offset="0.5172" style="stop-color:#2B3990"/>
	<stop  offset="0.8473" style="stop-color:#262262"/>
	<stop  offset="0.8513" style="stop-color:#211E56"/>
	<stop  offset="0.8619" style="stop-color:#17153B"/>
	<stop  offset="0.8742" style="stop-color:#0E0D25"/>
	<stop  offset="0.8885" style="stop-color:#080714"/>
	<stop  offset="0.9062" style="stop-color:#030309"/>
	<stop  offset="0.931" style="stop-color:#010102"/>
	<stop  offset="1" style="stop-color:#000000"/>
</radialGradient>
<path fill="url(#SVGID_1_)" d="M242.015,423.97c-0.578-3.918-0.919-15.326-1.587-27.664c-0.541-10.034-1.868-13.074-3.627-21.732
	c-2.643-9.095-4.287-14.586-5.435-24.405c-1.147-9.816-0.302-16.342-3.52-22.078c-1.923-3.429-4.727-4.463-6.351-4.854
	c-2.32-0.56-3.496-0.462-7.188-2.272c-2.563-1.259-2.036-1.622-5.973-3.831c-4.085-2.292-5.116-3.106-6.455-4.339
	c-0.242-0.224-1.849-1.583-1.928-2.625c-0.106-1.381,1.494-3.359,1.878-6.43c0.212-1.697,0.469-3.854,0.499-3.943
	c0.238-0.689,1.692-1.207,2.116-2.002c0.421-0.797,0.631-1.221,0.697-2.282c0.188-2.988-1.064-2.541-1.082-2.996
	c-0.063-1.625,0.438-5.937-0.125-8.625c-0.562-2.687-2.188-5.625-5.374-7.563c-2.3-1.397-7.063-2.875-11.563-1.5
	c-3.705,1.133-6.222,2.204-8.438,7.625c-0.862,2.111-0.889,3.875-0.881,5.377c0.012,2.142,0.508,5.269,0.517,5.649
	c-0.614,0.157-1.007,0.593-1.045,1.521c-0.047,1.119,0.207,2.38,0.674,3.359c0.467,0.978,1.002,1.842,1.391,2.064
	c0.534,0.307,0.812,0.229,1.093,0.179c0.007,0.04,0.015,0.088,0.023,0.142c0.023,1.602,0.159,3.176,0.65,4.834
	c0.823,2.784,2.046,3.999,1.908,5.458c-0.082,0.876-0.821,1.388-1.316,2.207c-1.011,1.671-3.06,2.172-7.991,4.655
	c-4.029,2.03-2.672,1.806-5.237,3.065c-3.88,1.902-4.178,1.782-6.253,2.204c-0.85,0.176-1.684,0.191-3.368,1.113
	c-1.929,1.055-2.669,1.842-3.918,3.809c-3.522,5.555-2.372,12.262-3.52,22.078c-1.148,9.819-2.793,15.31-5.434,24.405
	c-1.76,8.657-3.086,11.697-3.628,21.732c-0.668,12.338-1.008,23.746-1.587,27.664c-0.579,3.918-0.976,8.162-0.847,10.409
	c0.127,2.25,1.601,4.262,2.63,5.868c1.027,1.604,2.871,2.927,4.911,3.563c2.91,0.911,4.136,0.697,4.39,0.174
	c0.478-0.987-0.11-1.656-2.326-2.367c-1.146-0.368-2.221-1.052-3.064-2.37c-1.054-1.645-1.082-3.69-1.109-5.129
	c-0.033-1.72,1.451-1.79,1.87-1.303c0.942,1.104,0.838,4.216,0.803,4.999c-0.085,1.88,0.698,3.778,2.152,2.825
	c1.288-0.847,0.887-3.74,0.76-6.105c-0.085-1.574,0.573-3.807,0.196-7.369c-0.311-2.931-0.807-2.805-1.585-5.428
	c-0.655-2.206-0.52-3.541,0.021-6.132c0.724-3.48,5.13-11.011,7.518-20.168c1.352-5.181,2.843-13.045,3.001-17.406
	c0.155-4.363,2.044-7.454,3.412-12.671c0.206-0.783,0.42-2.01,0.629-3.193c0.996,4.999,3.437,12.098,4.13,17.884
	c0.507,4.25,1.499,8.542,1.21,13.089c-0.167,2.62-0.454,4.432-0.902,7.79c-0.029-0.006-0.044-0.01-0.044-0.01
	s-2.672,26.969-2.902,36.182c-0.247,9.828,0.392,12.228,0.938,23.674c0.499,10.472,1.321,15.582,0.709,23.393
	c-0.612,7.808-4.72,19.183-1.878,30.79c2.301,9.405,4.391,14.14,5.345,21.232c0.62,4.615,0.818,5.261,0.783,6.739
	c-0.042,1.709-0.451,2.766-0.825,3.736c-1.044,2.701-0.225,3.956-0.479,5.67c-0.436,2.939-0.399,3.515-1.63,5.78
	c-1.223,2.25-1.538,4.174-1.413,4.806c0.188,0.942,1.152,0.955,1.152,0.955s-0.224,0.793,0.827,1.219
	c0.806,0.323,1.325-0.132,1.325-0.132s0.235,1.137,1.26,1.368c1.461,0.334,1.89-0.455,1.89-0.455s0.137,1.047,1.261,1.305
	c1.609,0.365,2.021-0.915,2.021-0.915s0.398,0.837,1.542,1.175c1.653,0.483,2.587-0.198,3.13-1.109
	c0.731-1.229,0.993-3.355,0.956-5.368c-0.04-2.012-0.353-2.848-0.306-5.431c0.056-3.033,0.087-6.273,0.087-7.563
	c0-1.293-0.527-4.138-0.869-5.391c-0.182-0.665-1.037-3.49-1.491-7.859c-0.43-4.137-1.08-5.977,0.794-14.416
	c1.948-8.765,1.218-15.846,1.218-23.346c0-7.503,2.136-10.206,2.979-18.342c0.677-6.556,2.22-8.919,3.437-22.575
	c0.647-7.257,1.582-20.896,2.337-23.903c0.253,0.065,1.27,0.142,1.497,0.126c0.769,3.313,2.308,18.918,3.011,26.073
	c0.843,8.573,2.486,14.657,3.204,21.208c1.131,10.322,3.884,9.056,3.489,16.546c-0.509,9.691-1.713,15.448,0.235,24.213
	c1.875,8.439,0.914,9.872,0.521,15.429c-0.31,4.386-1.035,6.182-1.217,6.847c-0.341,1.253-0.869,4.098-0.869,5.391
	c0.001,1.289,0.03,4.529,0.087,7.563c0.048,2.583-0.267,3.419-0.305,5.431c-0.037,2.014,0.226,4.14,0.956,5.368
	c0.544,0.911,1.476,1.593,3.129,1.109c1.146-0.338,1.543-1.175,1.543-1.175s0.411,1.28,2.021,0.915
	c1.123-0.258,1.261-1.305,1.261-1.305s0.429,0.789,1.89,0.455c1.024-0.232,1.26-1.368,1.26-1.368s0.518,0.455,1.325,0.132
	c1.05-0.426,0.827-1.219,0.827-1.219s0.964-0.013,1.152-0.955c0.124-0.632-0.19-2.556-1.412-4.806
	c-1.233-2.266-1.196-2.841-1.631-5.78c-0.254-1.714,0.564-2.967-0.479-5.67c-0.374-0.971-0.785-2.027-0.826-3.736
	c-0.035-1.479,0.163-2.124,0.783-6.739c0.954-7.093,3.044-11.827,5.346-21.232c2.842-11.608-0.004-19.737-0.615-27.546
	c-0.613-7.808-0.122-13.334,0.498-25.43c0.27-5.267,1.091-13.622,0.846-23.45c-0.23-9.213-0.566-10.268-2.021-21.721
	c-0.318-2.491-2.337-19.81-2.45-21.573c-0.289-4.546,0.366-10.938,0.874-15.188c0.692-5.786,3.133-12.885,4.128-17.884
	c0.21,1.184,0.425,2.41,0.631,3.193c1.368,5.217,3.255,8.308,3.412,12.671c0.155,4.361,1.647,12.226,2.999,17.406
	c2.389,9.157,6.794,16.688,7.519,20.168c0.541,2.591,0.709,2.394,0,5.844c-0.551,2.68-1.254,2.785-1.564,5.716
	c-0.377,3.563,0.279,5.795,0.196,7.369c-0.127,2.365-0.529,5.259,0.761,6.105c1.453,0.953,2.235-0.945,2.15-2.825
	c-0.036-0.783-0.139-3.896,0.804-4.999c0.419-0.487,1.901-0.417,1.87,1.303c-0.026,1.439-0.056,3.484-1.108,5.129
	c-0.842,1.318-1.918,2.002-3.064,2.37c-2.216,0.711-2.804,1.38-2.325,2.367c0.253,0.523,1.48,0.737,4.389-0.174
	c2.041-0.636,3.883-1.958,4.912-3.563c1.028-1.607,2.5-3.618,2.629-5.868C242.991,432.133,242.594,427.888,242.015,423.97z"/>
</svg>
