<?xml version="1.0" encoding="utf-8"?>
<!-- Generator: Adobe Illustrator 17.0.0, SVG Export Plug-In . SVG Version: 6.00 Build 0)  -->
<!DOCTYPE svg PUBLIC "-//W3C//DTD SVG 1.1//EN" "http://www.w3.org/Graphics/SVG/1.1/DTD/svg11.dtd">
<svg version="1.1" id="Layer_1" xmlns="http://www.w3.org/2000/svg" xmlns:xlink="http://www.w3.org/1999/xlink" x="0px" y="0px"
	 width="384px" height="841.89px" viewBox="0 0 384 841.89" enable-background="new 0 0 384 841.89" xml:space="preserve">
<g>
	<polygon opacity="0.3" fill="#E2C36C" points="192,103.16 216.391,-51.319 216.316,105.074 264.573,-43.688 240.033,110.768 
		310.967,-28.614 262.567,120.102 354.432,-6.467 283.364,132.846 393.898,22.206 301.911,148.687 428.392,56.701 317.752,167.234 
		457.066,96.166 330.496,188.031 479.212,139.631 339.83,210.565 494.287,186.026 345.524,234.283 501.918,234.207 347.438,258.599 
		501.918,282.99 345.524,282.914 494.287,331.171 339.83,306.632 479.212,377.566 330.496,329.166 457.066,421.031 317.752,349.963 
		428.392,460.496 301.911,368.51 393.898,494.991 283.364,384.351 354.432,523.664 262.567,397.095 310.967,545.811 
		240.033,406.429 264.573,560.885 216.316,412.123 216.391,568.516 192,414.037 167.609,568.516 167.684,412.123 119.427,560.885 
		143.967,406.429 73.033,545.811 121.433,397.095 29.568,523.664 100.636,384.351 -9.898,494.991 82.089,368.51 -44.392,460.496 
		66.248,349.963 -73.066,421.031 53.504,329.166 -95.212,377.566 44.17,306.632 -110.287,331.171 38.476,282.914 -117.918,282.99 
		36.562,258.599 -117.918,234.207 38.476,234.283 -110.287,186.026 44.17,210.565 -95.212,139.631 53.504,188.031 -73.066,96.166 
		66.248,167.234 -44.392,56.701 82.089,148.687 -9.898,22.206 100.636,132.846 29.568,-6.467 121.433,120.102 73.033,-28.614 
		143.967,110.768 119.427,-43.688 167.684,105.074 167.609,-51.319 	"/>
	<circle opacity="0.3" fill="#E8E738" cx="198.167" cy="259.044" r="155.172"/>
</g>
</svg>
