<?xml version="1.0" encoding="utf-8"?>
<!-- Generator: Adobe Illustrator 17.0.0, SVG Export Plug-In . SVG Version: 6.00 Build 0)  -->
<!DOCTYPE svg PUBLIC "-//W3C//DTD SVG 1.1//EN" "http://www.w3.org/Graphics/SVG/1.1/DTD/svg11.dtd">
<svg version="1.1" id="Layer_1" xmlns="http://www.w3.org/2000/svg" xmlns:xlink="http://www.w3.org/1999/xlink" x="0px" y="0px"
	 width="384px" height="841.89px" viewBox="0 0 384 841.89" enable-background="new 0 0 384 841.89" xml:space="preserve">
<g>
	<polygon opacity="0.3" fill="#E2C36C" enable-background="new    " points="272,34.316 286.239,-50.629 286.195,35.369 
		314.365,-46.432 300.04,38.5 341.448,-38.143 313.194,43.632 366.821,-25.965 325.335,50.64 389.86,-10.199 336.162,59.351 
		409.996,8.77 345.409,69.549 426.735,30.471 352.849,80.985 439.663,54.371 358.297,93.376 448.463,79.883 361.621,106.418 
		452.918,106.377 362.739,119.789 452.918,133.201 361.621,133.16 448.463,159.695 358.297,146.202 439.663,185.207 
		352.849,158.593 426.735,209.107 345.409,170.029 409.996,230.808 336.162,180.227 389.86,249.777 325.335,188.938 
		366.821,265.543 313.194,195.945 341.448,277.721 300.04,201.078 314.365,286.01 286.195,204.209 286.239,290.206 272,205.262 
		257.761,290.206 257.805,204.209 229.635,286.01 243.96,201.078 202.552,277.721 230.806,195.945 177.179,265.543 218.665,188.938 
		154.14,249.777 207.838,180.227 134.004,230.808 198.591,170.029 117.265,209.107 191.151,158.593 104.337,185.207 
		185.703,146.202 95.537,159.695 182.379,133.16 91.082,133.201 181.261,119.789 91.082,106.377 182.379,106.418 95.537,79.883 
		185.703,93.376 104.337,54.371 191.151,80.985 117.265,30.471 198.591,69.549 134.004,8.77 207.838,59.351 154.14,-10.199 
		218.665,50.64 177.179,-25.965 230.806,43.632 202.552,-38.143 243.96,38.5 229.635,-46.432 257.805,35.369 257.761,-50.629 	"/>
	<ellipse opacity="0.3" fill="#E8E738" enable-background="new    " cx="275.6" cy="120.034" rx="90.583" ry="85.326"/>
</g>
</svg>
