<?xml version="1.0" encoding="utf-8"?>
<!-- Generator: Adobe Illustrator 17.0.0, SVG Export Plug-In . SVG Version: 6.00 Build 0)  -->
<!DOCTYPE svg PUBLIC "-//W3C//DTD SVG 1.1//EN" "http://www.w3.org/Graphics/SVG/1.1/DTD/svg11.dtd">
<svg version="1.1" id="Layer_1" xmlns="http://www.w3.org/2000/svg" xmlns:xlink="http://www.w3.org/1999/xlink" x="0px" y="0px"
	 width="500px" height="500px" viewBox="0 0 500 500" enable-background="new 0 0 500 500" xml:space="preserve">
<g>
	<g>
		<polygon opacity="0.3" fill="#E2C36C" enable-background="new    " points="361.183,11.389 374.878,-72 374.836,12.422 
			401.93,-67.881 388.152,15.496 427.979,-59.743 400.804,20.535 452.384,-47.788 412.481,27.414 474.542,-32.31 422.895,35.964 
			493.91,-13.69 431.789,45.976 510.009,7.614 438.945,57.203 522.444,31.077 444.186,69.367 530.908,56.121 447.382,82.17 
			535.193,82.129 448.456,95.296 535.193,108.462 447.382,108.421 530.908,134.471 444.186,121.224 522.444,159.515 
			438.945,133.389 510.009,182.978 431.789,144.615 493.91,204.281 422.895,154.627 474.542,222.901 412.481,163.177 
			452.384,238.38 400.804,170.057 427.979,250.335 388.152,175.096 401.93,258.472 374.836,178.17 374.878,262.591 361.183,179.202 
			347.487,262.591 347.53,178.17 320.435,258.472 334.213,175.096 294.386,250.335 321.561,170.057 269.982,238.38 309.884,163.177 
			247.823,222.901 299.47,154.627 228.455,204.281 290.577,144.615 212.356,182.978 283.421,133.389 199.921,159.515 
			278.181,121.224 191.458,134.471 274.984,108.421 187.173,108.462 273.909,95.296 187.173,82.129 274.984,82.17 191.458,56.121 
			278.181,69.367 199.921,31.077 283.421,57.203 212.356,7.614 290.577,45.976 228.455,-13.69 299.47,35.964 247.823,-32.31 
			309.884,27.414 269.982,-47.788 321.561,20.535 294.386,-59.743 334.213,15.496 320.435,-67.881 347.53,12.422 347.487,-72 		"/>
	</g>
	<ellipse opacity="0.3" fill="#E8E738" enable-background="new    " cx="361.277" cy="95.536" rx="87.125" ry="83.763"/>
</g>
</svg>
